<svg fill="currentColor" id="svg" version="1.1" xmlns="http://www.w3.org/2000/svg"
     viewBox="0, 0, 400,223.31288343558282">
    <path id="path0"
          d="M61.112 2.584 C 60.606 2.813,59.167 3.118,57.914 3.260 C 56.661 3.402,55.386 3.653,55.079 3.817 C 54.773 3.981,54.407 4.044,54.267 3.958 C 54.127 3.871,52.551 4.049,50.766 4.354 C 48.980 4.659,47.126 4.908,46.646 4.908 C 46.165 4.908,45.504 5.054,45.176 5.232 C 44.849 5.410,44.205 5.525,43.746 5.488 C 43.287 5.451,42.367 5.618,41.701 5.859 C 39.388 6.698,37.763 7.187,37.508 7.121 C 37.367 7.085,36.753 7.243,36.145 7.472 C 35.536 7.702,34.363 7.951,33.538 8.026 C 32.713 8.100,31.241 8.425,30.266 8.748 C 29.291 9.070,28.187 9.333,27.812 9.331 C 27.437 9.330,26.946 9.486,26.721 9.679 C 26.496 9.872,25.545 10.117,24.608 10.222 C 23.671 10.328,22.904 10.509,22.904 10.623 C 22.904 10.738,21.953 10.980,20.791 11.161 C 18.125 11.577,16.633 11.959,16.633 12.226 C 16.633 12.340,16.203 12.383,15.679 12.322 C 15.154 12.260,14.210 12.416,13.580 12.668 C 11.560 13.477,7.388 13.431,7.354 12.600 C 7.316 11.690,5.577 10.544,4.278 10.574 C 1.993 10.626,1.532 11.362,1.429 15.120 C 1.383 16.777,1.336 18.378,1.325 18.678 C 1.313 18.978,1.184 20.266,1.039 21.541 C 0.708 24.428,0.596 28.681,0.833 29.352 C 0.931 29.630,0.841 30.118,0.633 30.437 C 0.188 31.118,0.091 33.210,0.470 33.965 C 1.034 35.086,1.998 38.082,2.088 38.991 C 2.399 42.129,3.384 43.614,5.299 43.830 C 7.452 44.072,9.193 41.465,8.046 39.715 C 7.626 39.074,6.825 36.675,6.820 36.043 C 6.817 35.773,7.122 35.732,8.073 35.874 C 9.492 36.087,10.297 35.463,10.957 33.638 C 11.142 33.126,11.535 32.653,11.847 32.566 C 12.436 32.401,15.025 31.462,15.951 31.076 C 16.251 30.951,16.947 30.712,17.497 30.544 C 18.047 30.375,18.624 30.086,18.778 29.900 C 18.933 29.713,19.488 29.532,20.012 29.497 C 20.884 29.438,21.494 29.237,23.858 28.229 C 24.308 28.037,25.228 27.735,25.903 27.556 C 26.578 27.378,27.498 27.070,27.948 26.873 C 28.398 26.675,29.196 26.438,29.721 26.345 L 30.675 26.177 30.669 30.471 C 30.664 34.007,30.750 34.967,31.154 35.912 C 31.423 36.542,31.634 37.524,31.621 38.093 C 31.581 39.901,31.857 42.654,32.157 43.444 C 32.317 43.864,32.447 44.575,32.447 45.025 C 32.447 45.475,32.578 46.088,32.738 46.388 C 32.898 46.687,33.071 47.998,33.123 49.301 C 33.174 50.604,33.291 52.161,33.382 52.761 C 33.638 54.450,33.841 57.552,33.775 58.759 C 33.654 60.950,33.897 64.418,34.300 66.258 C 34.624 67.739,34.618 67.683,34.743 70.804 C 34.799 72.180,34.909 73.411,34.988 73.540 C 35.067 73.668,35.163 74.751,35.200 75.946 C 35.237 77.141,35.357 78.241,35.466 78.391 C 35.576 78.541,35.733 79.830,35.816 81.254 C 35.994 84.322,36.332 86.562,36.926 88.616 C 37.165 89.441,37.422 90.729,37.496 91.479 C 37.571 92.229,37.751 93.211,37.896 93.661 C 38.041 94.110,38.154 94.724,38.147 95.024 C 38.140 95.324,38.244 96.267,38.378 97.120 C 38.521 98.028,38.522 98.851,38.380 99.105 C 37.963 99.849,38.026 103.516,38.465 104.045 C 39.331 105.090,44.067 105.807,44.584 104.972 C 44.678 104.819,44.874 104.768,45.021 104.859 C 45.167 104.949,45.434 104.905,45.615 104.760 C 45.975 104.472,48.508 103.932,50.443 103.730 C 51.118 103.660,52.022 103.484,52.451 103.338 C 52.881 103.193,53.347 103.145,53.487 103.231 C 53.626 103.317,54.286 103.132,54.952 102.819 C 55.618 102.506,56.502 102.247,56.916 102.244 C 57.330 102.240,58.204 101.995,58.857 101.698 C 59.511 101.402,60.271 101.159,60.545 101.159 C 60.820 101.159,61.111 101.052,61.191 100.922 C 61.272 100.792,61.815 100.609,62.399 100.515 C 62.983 100.422,63.602 100.175,63.774 99.967 C 63.947 99.759,64.468 99.513,64.932 99.420 C 65.842 99.238,67.466 97.959,68.233 96.821 C 69.583 94.815,67.723 92.535,65.286 93.209 C 61.303 94.311,60.410 91.768,60.795 80.435 C 60.836 79.236,60.700 77.824,60.467 77.026 C 60.195 76.092,60.146 75.408,60.313 74.847 C 60.753 73.366,60.798 72.425,60.483 71.311 C 60.312 70.706,60.146 69.721,60.115 69.121 C 60.084 68.521,59.969 66.864,59.859 65.440 C 59.748 64.015,59.659 62.665,59.659 62.440 C 59.659 62.215,59.548 61.584,59.411 61.038 C 59.275 60.492,59.100 59.388,59.023 58.584 C 58.755 55.779,58.638 54.996,58.361 54.154 C 58.208 53.688,58.024 52.722,57.952 52.009 C 57.881 51.295,57.712 50.498,57.577 50.236 C 57.443 49.975,57.328 49.209,57.322 48.534 C 57.316 47.859,57.037 46.509,56.702 45.535 C 56.367 44.560,56.115 43.304,56.142 42.743 C 56.169 42.182,56.056 41.471,55.892 41.164 C 55.727 40.856,55.547 39.720,55.492 38.639 C 55.403 36.888,55.267 35.643,54.705 31.412 C 54.619 30.767,54.467 30.107,54.366 29.944 C 54.266 29.781,54.150 28.201,54.110 26.433 L 54.037 23.218 55.280 23.879 C 55.964 24.242,56.865 24.540,57.283 24.540 C 57.700 24.540,58.374 24.666,58.779 24.820 C 59.185 24.974,60.053 25.124,60.708 25.152 L 61.900 25.204 61.783 27.803 C 61.719 29.233,61.580 31.084,61.475 31.918 C 61.290 33.387,61.311 33.457,62.156 34.168 C 64.350 36.014,67.103 34.367,66.703 31.447 C 66.614 30.797,66.641 30.266,66.764 30.266 C 67.090 30.266,67.725 26.629,67.534 25.865 C 67.444 25.508,67.519 24.298,67.700 23.174 C 68.080 20.819,68.054 16.344,67.630 11.452 C 67.468 9.577,67.334 7.430,67.333 6.680 C 67.326 3.096,64.332 1.124,61.112 2.584 M184.480 4.296 C 184.441 4.334,182.373 4.421,179.884 4.489 C 175.804 4.600,172.599 4.996,169.857 5.729 C 169.325 5.871,168.144 5.977,167.233 5.964 C 164.368 5.924,162.509 7.461,162.509 9.871 C 162.509 11.480,163.015 13.633,163.393 13.633 C 163.506 13.633,163.599 13.879,163.599 14.179 C 163.599 14.479,163.722 14.724,163.872 14.724 C 164.022 14.724,164.145 14.885,164.145 15.082 C 164.145 15.278,164.362 15.677,164.629 15.968 C 164.895 16.258,165.277 17.048,165.478 17.723 C 165.678 18.398,165.936 19.196,166.051 19.496 C 166.727 21.268,167.231 24.652,167.413 28.630 C 167.541 31.440,167.775 33.589,168.036 34.356 C 168.792 36.576,168.927 38.166,169.282 49.080 C 169.426 53.504,169.686 58.412,169.861 59.986 C 170.404 64.886,170.674 66.891,170.981 68.303 C 171.144 69.052,171.340 70.279,171.417 71.029 C 171.494 71.779,171.668 72.509,171.804 72.652 C 171.940 72.794,172.052 73.186,172.052 73.522 C 172.052 73.858,172.175 74.209,172.324 74.301 C 172.474 74.394,172.597 74.768,172.597 75.131 C 172.597 75.495,172.712 76.316,172.853 76.956 C 173.511 79.945,173.673 81.353,173.397 81.685 C 173.204 81.918,173.205 82.079,173.402 82.200 C 173.559 82.298,173.688 83.037,173.688 83.845 C 173.688 84.652,173.794 85.378,173.923 85.458 C 174.384 85.743,174.488 89.530,174.048 90.025 C 173.739 90.372,173.714 90.609,173.939 91.030 C 174.101 91.332,174.233 91.875,174.233 92.237 C 174.233 92.862,174.969 93.797,175.460 93.797 C 175.586 93.797,175.921 94.006,176.203 94.261 C 176.725 94.734,185.621 93.340,186.353 92.670 C 186.496 92.540,186.931 92.434,187.321 92.434 C 187.711 92.434,188.177 92.286,188.357 92.106 C 188.612 91.852,188.684 91.853,188.684 92.112 C 188.684 92.749,190.122 94.615,190.613 94.615 C 190.884 94.615,191.182 94.738,191.275 94.888 C 191.541 95.319,193.376 95.167,194.274 94.640 L 195.092 94.160 195.116 91.146 C 195.137 88.544,195.217 88.035,195.699 87.422 C 196.485 86.423,196.701 84.989,196.227 83.912 C 195.804 82.948,195.674 79.985,196.046 79.755 C 196.172 79.677,196.276 78.638,196.276 77.447 C 196.276 72.003,197.865 69.362,199.026 72.877 C 199.210 73.436,199.474 73.892,199.612 73.892 C 199.750 73.892,199.864 74.057,199.864 74.259 C 199.864 74.461,200.109 74.848,200.409 75.119 C 200.709 75.391,200.954 75.839,200.954 76.116 C 200.954 76.393,201.077 76.619,201.227 76.619 C 201.377 76.619,201.501 76.834,201.503 77.096 C 201.508 77.783,203.562 81.715,204.691 83.198 C 206.134 85.095,207.259 85.617,209.905 85.617 C 211.113 85.617,212.177 85.740,212.270 85.890 C 212.363 86.040,212.728 86.162,213.081 86.162 C 213.435 86.162,214.317 86.419,215.042 86.732 C 217.411 87.757,219.588 88.285,222.196 88.465 C 223.607 88.562,224.979 88.759,225.246 88.902 C 225.513 89.045,226.261 89.164,226.908 89.168 C 228.291 89.176,229.437 89.444,231.493 90.241 C 235.938 91.965,239.262 88.781,237.183 84.791 C 236.889 84.227,236.410 83.703,236.119 83.627 C 235.828 83.551,235.478 83.200,235.342 82.848 C 235.023 82.022,233.792 80.877,233.450 81.088 C 233.305 81.178,233.116 81.068,233.030 80.844 C 232.940 80.610,232.531 80.436,232.069 80.436 C 230.697 80.436,228.254 78.748,228.229 77.784 C 228.202 76.725,224.045 69.637,223.255 69.302 C 223.137 69.252,223.040 69.061,223.040 68.876 C 223.040 68.692,222.672 68.188,222.222 67.757 C 221.772 67.326,221.404 66.828,221.404 66.649 C 221.404 66.471,221.228 66.178,221.013 66.000 C 220.798 65.821,220.358 65.162,220.034 64.535 C 219.711 63.908,219.174 63.088,218.841 62.713 C 218.508 62.338,217.783 61.326,217.229 60.464 C 216.676 59.601,215.808 58.252,215.300 57.464 C 214.792 56.677,214.240 55.603,214.073 55.078 C 213.906 54.554,213.498 53.695,213.167 53.170 C 212.214 51.658,211.861 50.953,211.861 50.564 C 211.861 50.364,211.639 50.041,211.368 49.845 C 210.867 49.483,209.134 47.086,209.134 46.755 C 209.134 46.655,208.908 46.248,208.631 45.850 C 207.770 44.611,206.796 40.441,206.504 36.742 C 206.413 35.579,206.231 34.628,206.100 34.628 C 205.486 34.628,206.004 33.778,207.498 32.333 C 208.398 31.463,209.134 30.658,209.134 30.546 C 209.134 30.433,209.987 29.707,211.030 28.931 C 212.072 28.156,215.020 25.440,217.580 22.895 C 220.140 20.351,222.372 18.269,222.540 18.269 C 222.846 18.269,225.545 16.116,226.312 15.260 C 226.990 14.504,229.121 13.181,229.993 12.975 C 231.907 12.523,232.387 12.490,232.947 12.768 C 233.272 12.929,234.151 13.107,234.901 13.163 C 235.651 13.218,236.499 13.368,236.786 13.495 C 237.158 13.660,237.252 13.634,237.111 13.407 C 236.881 13.035,238.385 12.992,239.264 13.346 C 240.191 13.718,241.662 12.680,242.283 11.214 C 243.542 8.242,242.203 6.501,238.291 6.025 C 234.495 5.563,233.616 5.528,231.827 5.768 C 230.886 5.895,229.659 5.897,229.100 5.774 C 228.542 5.650,227.187 5.633,226.090 5.735 C 224.993 5.838,223.521 5.804,222.818 5.660 C 221.056 5.300,215.701 5.248,215.587 5.590 C 215.530 5.760,213.275 5.862,209.561 5.862 L 203.627 5.862 202.684 6.953 C 201.048 8.844,201.950 13.088,203.989 13.088 C 204.252 13.088,204.543 13.211,204.635 13.361 C 204.728 13.511,205.447 13.633,206.233 13.633 C 208.282 13.633,208.989 15.231,208.005 17.642 C 207.210 19.592,206.892 20.213,206.037 21.484 C 205.532 22.233,204.894 23.476,204.617 24.244 C 204.341 25.012,203.796 25.976,203.405 26.386 C 203.015 26.795,202.400 27.560,202.038 28.085 C 201.677 28.609,201.040 29.407,200.623 29.857 C 200.207 30.307,199.866 30.784,199.865 30.917 C 199.863 31.201,199.472 31.525,197.325 33.022 C 196.453 33.629,195.667 34.331,195.577 34.582 C 195.313 35.322,191.951 40.082,191.692 40.082 C 191.562 40.082,191.245 39.438,190.988 38.650 C 190.731 37.863,190.410 37.078,190.274 36.906 C 189.684 36.158,190.539 14.042,191.234 12.098 C 192.392 8.857,191.925 5.728,190.139 4.766 C 189.354 4.343,184.809 3.966,184.480 4.296 M123.381 4.692 C 122.523 4.942,118.802 5.166,116.019 5.136 C 115.119 5.126,114.260 5.133,114.110 5.151 C 112.578 5.332,112.018 5.447,110.967 5.800 C 110.296 6.025,109.073 6.299,108.248 6.409 C 107.423 6.518,106.408 6.782,105.992 6.995 C 105.576 7.209,104.560 7.508,103.734 7.660 C 102.129 7.957,99.816 8.997,99.254 9.675 C 99.065 9.903,98.738 10.089,98.527 10.089 C 98.315 10.089,98.072 10.273,97.985 10.498 C 97.888 10.751,97.473 10.907,96.894 10.907 C 96.380 10.907,95.626 11.116,95.219 11.371 C 93.800 12.262,91.915 13.937,91.752 14.451 C 91.661 14.736,91.172 15.226,90.664 15.540 C 89.738 16.112,88.358 17.870,87.446 19.639 C 87.177 20.160,86.465 20.936,85.863 21.364 C 85.261 21.793,84.453 22.621,84.066 23.205 C 83.679 23.789,83.279 24.267,83.175 24.267 C 82.076 24.267,79.864 27.369,79.727 29.104 C 79.391 33.367,79.403 35.542,79.772 36.783 C 80.182 38.162,80.244 39.055,80.223 43.217 C 80.215 44.717,80.245 46.496,80.290 47.171 C 80.645 52.467,80.720 55.709,80.518 56.987 C 80.388 57.812,80.379 59.162,80.499 59.986 C 80.976 63.270,81.351 65.317,81.522 65.576 C 81.621 65.726,81.859 66.401,82.051 67.076 C 82.244 67.751,82.631 68.800,82.911 69.409 C 83.192 70.017,83.485 71.121,83.562 71.863 C 83.640 72.604,83.776 73.861,83.864 74.657 C 84.109 76.870,85.638 80.236,87.038 81.644 C 87.868 82.479,88.708 84.157,88.480 84.526 C 87.850 85.546,94.690 92.979,96.259 92.979 C 96.506 92.979,97.372 93.449,98.183 94.023 C 98.995 94.597,100.241 95.344,100.953 95.682 C 101.664 96.021,102.309 96.399,102.386 96.523 C 102.462 96.647,103.019 96.832,103.624 96.934 C 104.228 97.036,105.089 97.303,105.537 97.526 C 105.985 97.750,107.345 98.092,108.559 98.286 C 109.773 98.480,110.857 98.787,110.969 98.967 C 111.360 99.601,115.943 100.074,118.413 99.735 C 119.646 99.565,121.697 99.405,122.972 99.378 C 124.247 99.351,125.743 99.237,126.298 99.125 C 126.852 99.014,127.773 98.882,128.343 98.834 C 130.733 98.630,131.859 98.355,133.522 97.570 C 134.488 97.113,135.792 96.681,136.419 96.610 C 137.626 96.472,138.590 96.183,140.150 95.491 C 140.675 95.258,141.411 95.038,141.786 95.003 C 142.683 94.920,145.513 94.137,146.149 93.797 C 146.493 93.612,146.682 93.624,146.751 93.833 C 146.943 94.407,148.597 93.829,148.528 93.213 C 148.483 92.815,148.722 92.574,149.421 92.316 C 153.074 90.966,154.953 89.380,156.419 86.411 C 157.929 83.354,158.113 82.762,159.417 76.760 C 159.645 75.712,159.954 74.626,160.104 74.345 C 160.255 74.064,160.404 72.896,160.437 71.750 C 160.478 70.299,160.642 69.444,160.976 68.935 C 161.641 67.922,161.782 63.078,161.232 60.123 C 160.851 58.079,160.864 56.702,161.308 52.215 C 161.460 50.678,161.448 46.622,161.290 46.367 C 161.204 46.227,161.128 45.339,161.122 44.393 C 161.115 43.446,160.935 41.462,160.721 39.983 C 160.508 38.504,160.387 37.206,160.454 37.099 C 160.520 36.991,160.399 36.321,160.185 35.610 C 159.971 34.898,159.804 33.486,159.813 32.472 C 159.829 30.771,159.742 30.483,158.689 28.762 C 157.696 27.141,157.569 26.757,157.716 25.837 C 157.929 24.505,157.506 22.892,156.763 22.205 C 155.133 20.696,154.455 19.923,153.620 18.617 C 153.115 17.828,152.377 16.906,151.980 16.567 C 151.050 15.775,150.781 15.490,150.034 14.514 C 149.346 13.613,146.658 11.863,145.527 11.579 C 145.119 11.477,144.785 11.239,144.785 11.051 C 144.785 10.863,143.865 10.242,142.740 9.671 C 141.616 9.100,140.695 8.554,140.695 8.459 C 140.695 8.175,138.543 7.312,138.265 7.483 C 138.125 7.570,137.418 7.322,136.694 6.932 C 135.970 6.541,134.765 6.119,134.015 5.993 C 133.265 5.867,131.259 5.510,129.557 5.200 C 125.687 4.495,124.416 4.390,123.381 4.692 M269.586 7.755 C 268.348 8.413,262.304 9.640,262.304 9.233 C 262.304 9.125,262.497 8.844,262.733 8.608 C 263.124 8.217,263.124 8.163,262.730 8.012 C 262.134 7.784,261.513 8.362,261.678 8.993 C 261.824 9.551,260.864 9.696,260.220 9.213 C 260.033 9.073,259.757 9.130,259.533 9.354 C 258.984 9.903,252.761 10.549,252.761 10.057 C 252.761 9.925,252.638 9.816,252.488 9.816 C 252.338 9.816,252.246 9.942,252.284 10.095 C 252.364 10.426,246.269 10.539,244.938 10.232 C 243.810 9.972,242.539 11.087,242.743 12.156 C 242.814 12.526,242.763 12.895,242.631 12.977 C 242.499 13.059,242.461 13.240,242.547 13.379 C 242.634 13.519,242.456 13.633,242.151 13.633 C 241.788 13.633,241.649 13.765,241.746 14.017 C 241.827 14.228,241.700 14.970,241.464 15.665 C 240.927 17.245,241.284 18.981,242.359 20.025 C 243.843 21.467,245.297 22.673,246.402 23.380 C 247.267 23.934,247.583 24.336,247.718 25.055 C 247.816 25.575,248.450 26.720,249.127 27.600 C 249.804 28.480,250.467 29.593,250.600 30.074 C 250.734 30.554,251.336 31.469,251.938 32.107 C 252.541 32.745,253.033 33.388,253.033 33.538 C 253.033 33.687,253.441 34.269,253.938 34.832 C 255.044 36.083,256.033 37.688,256.033 38.233 C 256.033 38.455,256.379 39.115,256.802 39.700 C 257.226 40.285,257.771 41.350,258.015 42.066 C 258.259 42.782,258.710 43.688,259.018 44.079 C 259.326 44.471,259.577 45.065,259.577 45.401 C 259.577 45.737,259.769 46.549,260.002 47.205 C 260.433 48.413,260.676 50.087,260.667 51.781 C 260.664 52.292,260.834 52.906,261.045 53.145 C 261.255 53.383,261.516 54.499,261.624 55.624 C 261.733 56.748,261.917 57.853,262.035 58.078 C 262.152 58.303,262.322 59.694,262.412 61.170 C 262.502 62.646,262.626 63.936,262.688 64.037 C 263.573 65.468,262.086 80.208,260.828 82.467 C 260.490 83.075,260.124 83.928,260.016 84.363 C 259.571 86.149,257.637 89.166,256.598 89.697 C 255.322 90.348,255.118 90.608,254.499 92.368 L 253.994 93.802 254.651 95.640 C 256.294 100.245,257.284 100.611,268.313 100.695 C 274.128 100.739,276.109 100.656,278.522 100.264 C 280.679 99.914,282.698 99.799,285.748 99.850 C 292.432 99.961,293.444 99.126,292.836 93.995 C 292.448 90.726,292.475 84.669,292.880 83.911 C 293.035 83.622,293.089 83.097,293.001 82.745 C 292.913 82.393,292.946 82.041,293.074 81.961 C 293.203 81.882,293.394 80.683,293.499 79.297 C 293.603 77.911,293.794 76.650,293.924 76.494 C 294.482 75.819,294.679 67.269,294.194 64.758 C 293.752 62.469,293.805 56.097,294.277 54.806 C 294.483 54.242,295.024 49.349,295.024 48.049 C 295.024 47.423,295.352 46.322,295.820 45.374 C 296.259 44.488,296.757 43.229,296.929 42.577 C 297.100 41.925,297.601 40.894,298.041 40.287 C 298.481 39.679,298.841 38.976,298.841 38.725 C 298.841 38.474,299.118 38.008,299.456 37.691 C 300.051 37.132,300.942 35.534,302.074 32.993 C 303.151 30.577,305.429 26.070,305.880 25.461 C 306.133 25.120,306.636 24.350,306.999 23.750 C 307.362 23.150,307.990 22.522,308.395 22.354 C 308.800 22.187,309.539 21.628,310.038 21.113 C 310.537 20.598,311.143 20.177,311.385 20.177 C 311.627 20.177,312.063 19.993,312.354 19.768 C 313.898 18.575,317.636 17.303,320.803 16.894 C 324.296 16.443,324.305 16.441,325.106 15.698 C 327.382 13.589,325.595 10.813,321.336 9.842 C 318.952 9.298,317.366 8.877,313.955 7.879 C 312.725 7.520,312.245 7.566,310.375 8.223 C 308.766 8.788,308.514 8.802,305.194 8.505 C 292.315 7.356,293.021 7.251,291.725 10.498 C 290.469 13.641,290.824 14.954,293.194 15.945 C 294.344 16.425,296.313 18.153,296.813 19.120 C 297.252 19.968,297.061 21.109,295.698 25.767 C 295.304 27.117,294.693 29.264,294.341 30.539 C 293.630 33.119,291.993 36.442,291.491 36.326 C 291.287 36.279,291.226 36.441,291.327 36.761 C 291.578 37.549,290.256 38.718,289.115 38.718 C 287.632 38.718,285.781 37.271,285.762 36.098 C 285.757 35.782,285.446 35.071,285.072 34.518 C 284.697 33.966,284.390 33.364,284.390 33.181 C 284.390 32.632,282.752 29.448,282.470 29.448 C 282.326 29.448,282.209 29.307,282.209 29.135 C 282.209 28.684,279.998 26.007,277.341 23.242 C 276.838 22.719,276.260 21.892,276.056 21.405 C 275.853 20.918,274.945 19.767,274.040 18.847 C 271.768 16.540,272.041 14.724,274.660 14.724 C 276.723 14.724,277.204 13.199,275.755 11.252 C 275.394 10.767,274.916 9.853,274.693 9.220 C 273.872 6.896,272.138 6.398,269.586 7.755 M348.330 7.360 C 344.951 7.463,342.817 7.647,342.195 7.890 C 340.455 8.569,338.919 9.355,338.613 9.724 C 338.447 9.925,338.119 10.089,337.885 10.089 C 336.941 10.089,335.149 11.257,333.537 12.924 C 332.019 14.495,331.293 15.636,332.148 15.107 C 332.345 14.985,332.389 15.032,332.266 15.232 C 332.157 15.407,331.951 15.478,331.807 15.389 C 331.664 15.300,331.212 15.575,330.804 15.999 C 329.909 16.929,328.145 18.269,327.815 18.269 C 327.685 18.269,327.171 18.688,326.674 19.202 C 326.176 19.715,325.477 20.208,325.121 20.297 C 324.764 20.387,324.472 20.633,324.472 20.843 C 324.472 21.054,324.145 21.615,323.745 22.089 C 323.152 22.795,323.089 22.997,323.404 23.197 C 323.753 23.417,323.565 23.564,323.040 23.482 C 322.928 23.464,322.836 23.656,322.836 23.909 C 322.836 24.162,322.580 24.641,322.268 24.973 C 321.724 25.551,321.308 26.727,321.022 28.494 C 320.950 28.943,320.789 29.557,320.665 29.857 C 320.010 31.443,319.564 32.954,319.564 33.587 C 319.564 33.979,319.258 34.834,318.885 35.487 C 318.512 36.139,318.205 37.072,318.204 37.560 C 318.202 38.047,318.092 38.446,317.959 38.446 C 317.549 38.446,316.837 40.247,316.837 41.286 C 316.837 42.203,316.577 42.900,315.863 43.899 C 315.702 44.124,315.410 44.860,315.213 45.535 C 315.017 46.210,314.579 47.376,314.240 48.125 C 313.901 48.875,313.427 50.143,313.188 50.942 C 312.949 51.741,312.499 52.752,312.188 53.189 C 311.877 53.625,311.552 54.444,311.466 55.008 C 311.379 55.571,311.080 56.516,310.801 57.106 C 310.522 57.697,310.293 58.702,310.293 59.340 C 310.293 59.978,310.183 60.568,310.048 60.651 C 309.914 60.734,309.716 61.692,309.609 62.780 C 309.502 63.868,309.324 64.881,309.213 65.031 C 309.102 65.181,308.864 66.223,308.684 67.348 C 308.504 68.472,308.179 69.749,307.962 70.184 C 307.488 71.135,307.449 72.303,307.878 72.731 C 308.111 72.964,308.061 73.303,307.678 74.081 C 307.140 75.174,307.046 76.451,306.925 84.254 C 306.886 86.759,306.992 88.737,307.215 89.652 C 307.408 90.447,307.566 91.452,307.566 91.885 C 307.566 92.319,307.689 92.750,307.839 92.843 C 307.989 92.935,308.112 93.365,308.112 93.797 C 308.112 94.229,308.220 94.650,308.353 94.732 C 308.486 94.814,308.680 95.453,308.785 96.151 C 308.889 96.850,309.077 97.618,309.202 97.859 C 309.826 99.059,310.293 100.346,310.293 100.863 C 310.293 101.910,314.211 106.612,315.084 106.612 C 315.252 106.612,315.621 106.869,315.905 107.182 C 316.406 107.736,318.322 108.793,318.824 108.793 C 318.961 108.793,319.401 109.131,319.803 109.543 C 320.206 109.956,320.842 110.546,321.219 110.855 C 323.559 112.776,324.839 113.701,325.157 113.701 C 325.357 113.701,325.867 113.989,326.291 114.340 C 327.225 115.113,328.604 115.610,329.813 115.610 C 330.307 115.610,330.778 115.719,330.860 115.852 C 331.093 116.229,332.824 116.472,333.876 116.274 C 334.400 116.176,334.762 115.988,334.681 115.857 C 334.545 115.637,335.570 115.728,336.878 116.053 C 337.178 116.127,338.466 116.246,339.741 116.317 C 341.016 116.388,342.396 116.579,342.808 116.742 C 344.659 117.475,348.884 116.275,351.066 114.397 C 351.511 114.014,352.519 113.385,353.308 112.999 C 354.096 112.612,354.878 112.030,355.047 111.704 C 355.215 111.378,356.008 110.436,356.809 109.611 C 359.179 107.171,359.994 106.225,361.145 104.577 C 361.745 103.719,362.448 102.767,362.706 102.463 C 362.965 102.158,363.687 100.851,364.311 99.557 C 366.714 94.577,367.408 93.252,367.613 93.252 C 367.730 93.252,367.826 93.037,367.827 92.774 C 367.828 92.322,369.510 88.813,370.025 88.187 C 370.158 88.026,370.215 87.624,370.151 87.294 C 370.076 86.906,370.223 86.577,370.567 86.363 C 370.859 86.180,371.097 85.809,371.097 85.538 C 371.097 85.266,371.289 84.674,371.523 84.221 C 371.758 83.768,371.919 83.130,371.882 82.803 C 371.802 82.110,372.819 80.342,373.125 80.642 C 373.239 80.754,373.306 80.539,373.275 80.164 C 373.163 78.821,373.281 77.951,373.551 78.119 C 373.701 78.211,373.824 78.050,373.824 77.759 C 373.824 77.469,373.988 77.095,374.188 76.929 C 374.515 76.658,375.072 75.623,375.969 73.620 C 376.137 73.245,376.521 72.510,376.822 71.988 C 377.123 71.465,377.369 70.590,377.369 70.043 C 377.369 69.305,377.499 69.014,377.873 68.916 C 378.391 68.781,378.723 67.567,378.729 65.789 C 378.731 65.306,378.963 64.500,379.245 63.997 C 379.527 63.495,379.849 62.549,379.959 61.895 C 380.070 61.241,380.398 60.282,380.689 59.764 C 381.080 59.067,381.202 58.388,381.155 57.155 C 381.120 56.238,381.197 54.813,381.326 53.988 C 381.454 53.163,381.529 52.326,381.493 52.127 C 381.456 51.928,381.568 51.595,381.742 51.385 C 381.921 51.169,382.054 50.119,382.050 48.951 C 382.045 47.822,382.156 46.898,382.295 46.898 C 382.435 46.898,382.549 46.612,382.549 46.262 C 382.549 45.912,382.634 45.542,382.737 45.439 C 383.445 44.731,383.773 36.255,383.075 36.686 C 382.768 36.875,382.452 34.514,382.635 33.391 C 382.718 32.878,382.683 32.393,382.556 32.315 C 382.213 32.103,380.368 28.669,380.368 28.243 C 380.368 28.040,380.191 27.533,379.975 27.116 C 379.759 26.700,379.646 26.039,379.724 25.649 C 379.833 25.104,379.654 24.721,378.950 23.990 C 378.447 23.468,377.681 22.304,377.247 21.404 C 376.814 20.504,376.296 19.670,376.096 19.550 C 375.896 19.430,375.733 19.169,375.733 18.970 C 375.733 18.531,375.022 17.907,374.420 17.819 C 374.179 17.783,373.572 17.263,373.073 16.662 C 372.574 16.061,371.465 15.176,370.609 14.696 C 369.753 14.216,368.807 13.610,368.507 13.351 C 368.207 13.091,367.655 12.789,367.280 12.681 C 366.205 12.371,363.001 10.700,361.493 9.663 C 360.737 9.143,359.797 8.648,359.405 8.563 C 359.012 8.478,357.703 8.111,356.494 7.749 C 355.286 7.386,354.121 7.115,353.904 7.146 C 353.688 7.177,351.179 7.273,348.330 7.360 M263.258 8.632 C 262.726 9.055,262.730 9.062,263.395 8.899 C 263.770 8.808,264.298 8.731,264.570 8.729 C 264.841 8.727,264.987 8.603,264.894 8.453 C 264.647 8.052,263.881 8.136,263.258 8.632 M119.427 19.183 C 122.129 20.204,123.517 21.240,123.517 22.233 C 123.517 22.461,123.701 22.719,123.926 22.805 C 124.151 22.892,124.335 23.099,124.335 23.265 C 124.335 23.432,124.657 23.845,125.050 24.183 C 126.130 25.110,127.062 26.483,127.062 27.146 C 127.062 27.471,127.734 28.643,128.556 29.751 C 129.378 30.859,130.053 31.919,130.056 32.106 C 130.059 32.294,130.199 32.447,130.367 32.447 C 130.581 32.447,130.588 32.550,130.392 32.788 C 130.061 33.188,130.023 35.071,130.329 35.855 C 131.160 37.986,131.652 38.933,132.289 39.631 C 133.015 40.426,133.020 40.462,133.054 44.824 C 133.094 49.967,133.093 50.456,133.039 53.207 C 133.016 54.352,133.147 55.739,133.328 56.290 C 133.581 57.055,133.584 57.472,133.343 58.053 C 133.130 58.569,133.081 59.904,133.190 62.187 C 133.354 65.575,133.142 67.310,132.341 69.162 C 132.137 69.634,131.970 70.279,131.970 70.593 C 131.970 70.908,131.847 71.166,131.697 71.166 C 131.547 71.166,131.425 71.538,131.425 71.993 C 131.425 72.448,131.252 73.093,131.041 73.425 C 130.830 73.757,130.443 74.930,130.180 76.031 C 129.818 77.549,129.564 78.088,129.132 78.258 C 127.788 78.789,127.456 78.882,127.198 78.805 C 126.640 78.638,125.245 78.824,123.790 79.260 C 120.697 80.187,118.682 79.890,116.939 78.248 C 116.545 77.877,115.903 77.286,115.511 76.934 C 114.968 76.448,114.807 76.057,114.835 75.298 C 114.856 74.749,114.585 73.688,114.233 72.938 C 113.882 72.188,113.626 71.461,113.664 71.321 C 113.754 70.994,112.868 65.657,112.667 65.320 C 112.583 65.179,112.472 63.860,112.420 62.389 C 112.368 60.918,112.196 59.377,112.039 58.964 C 111.503 57.561,111.436 45.498,111.954 43.716 C 112.208 42.844,112.395 41.289,112.382 40.168 C 112.370 39.071,112.446 38.173,112.553 38.173 C 112.660 38.173,112.758 36.915,112.772 35.378 C 112.800 32.319,113.320 28.099,113.721 27.689 C 113.860 27.547,113.974 26.979,113.974 26.427 C 113.974 25.382,114.376 24.339,115.487 22.495 C 115.849 21.895,116.229 21.220,116.332 20.995 C 116.508 20.612,118.213 18.809,118.391 18.818 C 118.436 18.820,118.903 18.984,119.427 19.183 M358.046 26.286 C 358.158 26.705,358.334 28.017,358.437 29.202 C 358.541 30.387,358.701 31.357,358.795 31.358 C 359.453 31.364,359.038 35.987,358.112 38.972 C 357.906 39.636,357.737 41.062,357.737 42.141 C 357.737 43.228,357.547 44.636,357.311 45.296 C 357.034 46.075,356.945 46.893,357.056 47.650 C 357.209 48.698,357.012 49.746,356.353 51.397 C 356.233 51.697,356.050 52.249,355.946 52.624 C 355.842 52.999,355.552 53.613,355.301 53.988 C 355.051 54.363,354.623 55.651,354.351 56.851 C 354.078 58.050,353.686 59.747,353.478 60.622 C 353.271 61.496,353.102 62.747,353.102 63.401 C 353.102 64.054,352.979 64.665,352.829 64.758 C 352.679 64.851,352.556 65.232,352.556 65.605 C 352.556 65.978,352.115 66.974,351.576 67.816 C 351.037 68.659,350.166 70.340,349.641 71.552 C 349.117 72.764,348.340 74.492,347.915 75.392 C 347.491 76.292,347.008 77.546,346.842 78.180 C 346.222 80.548,344.974 83.127,343.237 85.628 C 342.252 87.047,341.352 88.511,341.237 88.883 C 340.996 89.661,339.431 92.103,338.786 92.706 C 338.546 92.931,337.645 93.798,336.784 94.632 C 335.923 95.466,335.025 96.224,334.787 96.315 C 333.763 96.708,330.743 94.678,330.743 93.597 C 330.743 93.404,330.485 92.697,330.170 92.026 C 329.749 91.131,329.637 90.498,329.748 89.643 C 330.082 87.078,330.393 85.409,330.805 83.981 C 331.043 83.156,331.443 81.591,331.695 80.502 C 331.946 79.414,332.522 77.782,332.975 76.877 C 333.427 75.972,333.961 74.592,334.161 73.812 C 334.362 73.031,334.775 71.718,335.079 70.893 C 335.384 70.068,335.637 69.015,335.642 68.553 C 335.654 67.386,336.224 64.540,336.507 64.226 C 336.636 64.084,336.743 63.716,336.745 63.408 C 336.747 63.101,337.053 62.315,337.427 61.663 C 337.800 61.010,338.105 60.235,338.105 59.941 C 338.105 59.647,338.412 58.735,338.787 57.916 C 339.162 57.096,339.468 56.151,339.468 55.817 C 339.468 55.482,339.907 54.556,340.444 53.759 C 340.980 52.962,341.352 52.136,341.270 51.922 C 341.188 51.708,341.240 51.534,341.386 51.534 C 341.531 51.534,341.650 51.237,341.650 50.875 C 341.650 50.512,341.742 50.175,341.854 50.125 C 342.351 49.904,343.003 47.994,343.071 46.558 C 343.112 45.695,343.239 44.990,343.352 44.990 C 343.466 44.990,343.558 44.873,343.558 44.731 C 343.558 44.589,343.865 44.142,344.240 43.737 C 344.615 43.332,344.922 42.845,344.922 42.654 C 344.922 42.198,345.818 40.631,346.080 40.629 C 346.193 40.628,346.285 40.386,346.285 40.091 C 346.285 38.383,349.151 32.285,350.646 30.811 C 350.723 30.736,350.943 30.368,351.135 29.993 C 353.197 25.985,357.367 23.748,358.046 26.286 M272.802 102.249 C 272.894 102.399,273.201 102.522,273.483 102.522 C 273.766 102.522,274.072 102.399,274.165 102.249 C 274.264 102.090,273.981 101.977,273.483 101.977 C 272.986 101.977,272.703 102.090,272.802 102.249 M147.147 114.828 C 146.871 114.988,144.785 115.282,142.511 115.481 C 140.238 115.679,137.519 116.041,136.469 116.285 C 135.419 116.529,134.221 116.798,133.807 116.882 C 133.393 116.967,132.987 117.145,132.905 117.278 C 132.823 117.410,132.234 117.519,131.596 117.519 C 130.958 117.519,129.921 117.768,129.291 118.072 C 128.426 118.490,128.018 118.557,127.622 118.345 C 127.328 118.187,126.820 118.157,126.466 118.276 C 125.415 118.628,116.170 118.258,115.921 117.854 C 114.979 116.325,110.432 116.028,108.751 117.384 C 107.190 118.644,107.061 118.733,106.649 118.821 C 106.457 118.862,106.372 118.777,106.462 118.632 C 106.665 118.303,105.583 117.271,104.845 117.090 C 103.574 116.779,101.356 116.511,100.670 116.586 C 96.305 117.062,94.152 117.379,93.880 117.585 C 93.701 117.722,92.100 117.867,90.322 117.910 C 88.537 117.952,86.823 118.129,86.495 118.305 C 86.168 118.479,85.591 118.545,85.212 118.450 C 84.794 118.345,84.281 118.434,83.911 118.677 C 83.574 118.897,82.569 119.137,81.677 119.211 C 80.785 119.285,80.008 119.486,79.950 119.659 C 79.893 119.831,79.698 119.973,79.518 119.973 C 78.975 119.973,78.340 121.366,78.015 123.273 C 77.393 126.917,78.356 128.902,81.212 129.866 C 82.018 130.138,82.951 130.540,83.285 130.759 L 83.892 131.157 83.380 134.085 C 83.098 135.696,82.816 138.119,82.754 139.468 C 82.691 140.818,82.515 142.904,82.363 144.104 C 82.210 145.303,81.966 147.512,81.821 149.012 C 81.668 150.591,81.353 152.140,81.073 152.693 C 80.699 153.431,80.572 154.450,80.513 157.192 C 80.471 159.141,80.300 161.071,80.133 161.481 C 79.965 161.891,79.898 162.406,79.982 162.626 C 80.067 162.846,79.951 163.395,79.726 163.847 C 79.365 164.572,79.363 164.806,79.716 165.846 C 80.083 166.925,80.169 167.709,80.222 170.416 C 80.255 172.149,79.915 176.348,79.644 177.550 C 79.497 178.200,79.306 179.070,79.220 179.482 C 78.930 180.866,78.664 180.248,78.634 178.118 C 78.610 176.417,78.472 175.766,77.927 174.776 C 77.554 174.100,77.161 173.073,77.052 172.493 C 76.943 171.914,76.755 171.240,76.633 170.996 C 75.772 169.273,75.256 167.960,75.256 167.497 C 75.256 167.199,75.070 166.583,74.843 166.129 C 74.617 165.674,74.319 164.413,74.183 163.327 C 74.047 162.240,73.803 161.219,73.641 161.057 C 73.479 160.896,73.346 160.573,73.345 160.341 C 73.344 160.108,73.160 159.567,72.936 159.137 C 72.712 158.708,72.529 158.151,72.529 157.900 C 72.529 157.464,72.182 156.713,71.005 154.601 C 70.172 153.107,69.860 151.918,69.656 149.455 C 69.515 147.750,69.310 146.940,68.849 146.260 C 68.509 145.759,68.146 144.898,68.042 144.346 C 67.939 143.794,67.668 143.058,67.441 142.712 C 67.167 142.294,67.089 141.800,67.210 141.252 C 67.325 140.728,67.283 140.423,67.097 140.423 C 66.935 140.423,66.803 140.179,66.803 139.880 C 66.803 139.396,66.368 138.694,65.576 137.902 C 65.025 137.350,65.425 133.548,66.132 132.617 C 68.903 128.969,67.898 125.830,63.258 123.646 C 62.226 123.161,60.479 123.203,56.851 123.802 C 54.189 124.241,54.035 124.260,51.411 124.478 C 50.124 124.586,49.005 124.781,48.923 124.913 C 48.842 125.045,48.471 125.153,48.101 125.153 C 47.730 125.153,46.992 125.335,46.460 125.557 C 45.885 125.797,44.205 126.015,42.311 126.096 C 38.273 126.267,36.813 126.459,36.124 126.906 C 35.822 127.103,35.179 127.350,34.696 127.456 C 34.212 127.562,33.747 127.763,33.661 127.901 C 33.576 128.039,33.152 128.153,32.720 128.153 C 32.288 128.153,31.858 128.275,31.766 128.425 C 31.673 128.575,31.111 128.698,30.517 128.698 C 26.432 128.698,26.047 134.485,30.091 135.104 C 33.690 135.656,34.356 135.854,34.356 136.374 C 34.356 136.657,34.663 137.375,35.037 137.969 C 35.412 138.563,35.719 139.174,35.719 139.327 C 35.719 139.479,35.839 139.605,35.985 139.605 C 36.132 139.605,36.181 139.952,36.096 140.381 C 35.979 140.966,36.105 141.335,36.609 141.879 C 36.977 142.276,37.549 143.458,37.879 144.506 C 38.210 145.553,38.595 146.482,38.736 146.568 C 38.876 146.655,38.991 147.077,38.991 147.505 C 38.991 148.378,39.877 150.625,40.332 150.906 C 40.494 151.007,40.627 151.442,40.627 151.875 C 40.627 152.307,40.752 152.737,40.904 152.831 C 41.056 152.926,41.357 153.424,41.572 153.938 C 41.787 154.453,42.092 154.874,42.249 154.874 C 42.407 154.874,42.536 155.219,42.536 155.640 C 42.536 156.061,42.716 156.644,42.936 156.935 C 43.156 157.226,43.340 157.805,43.345 158.223 C 43.350 158.640,43.523 159.046,43.730 159.125 C 43.940 159.206,44.184 159.860,44.283 160.605 C 44.380 161.339,44.610 162.099,44.793 162.292 C 44.976 162.486,45.135 162.768,45.146 162.918 C 45.213 163.846,45.644 165.543,45.844 165.666 C 45.974 165.747,46.080 166.085,46.080 166.418 C 46.080 166.750,46.249 167.265,46.454 167.560 C 46.660 167.856,47.113 169.049,47.461 170.211 C 47.809 171.374,48.193 172.324,48.314 172.324 C 48.435 172.324,48.535 172.539,48.536 172.802 C 48.537 173.064,48.711 173.611,48.923 174.017 C 49.134 174.422,49.246 174.991,49.170 175.281 C 49.094 175.571,49.166 175.890,49.329 175.991 C 49.492 176.092,49.625 176.509,49.625 176.918 C 49.625 177.328,49.884 178.149,50.201 178.743 C 50.517 179.337,50.956 180.160,51.175 180.573 C 51.394 180.985,51.687 181.322,51.826 181.322 C 51.965 181.322,52.079 181.745,52.079 182.261 C 52.079 182.777,52.207 183.278,52.363 183.374 C 52.519 183.471,52.583 183.754,52.505 184.004 C 52.372 184.432,52.678 185.498,53.379 187.048 C 53.548 187.423,53.815 188.378,53.972 189.169 C 54.129 189.961,54.470 190.932,54.729 191.327 C 54.988 191.722,55.164 192.381,55.121 192.792 C 55.078 193.202,55.174 193.619,55.333 193.718 C 55.493 193.816,55.624 194.114,55.624 194.379 C 55.624 194.644,55.930 195.149,56.305 195.501 C 56.680 195.853,56.987 196.316,56.987 196.530 C 56.987 196.928,57.138 197.299,58.596 200.478 C 59.061 201.491,59.441 202.439,59.441 202.585 C 59.441 202.731,59.748 203.051,60.123 203.297 C 60.517 203.555,60.804 204.004,60.804 204.359 C 60.804 205.119,61.754 207.314,62.267 207.740 C 62.475 207.913,62.726 208.560,62.825 209.180 C 62.924 209.799,63.477 211.238,64.053 212.378 C 64.630 213.518,65.497 215.279,65.981 216.290 C 68.389 221.322,71.217 223.547,73.762 222.410 C 77.648 220.673,79.312 219.101,79.341 217.141 C 79.344 216.970,79.815 216.112,80.388 215.232 C 81.986 212.780,82.815 208.993,82.370 206.182 C 82.066 204.261,82.028 203.690,82.051 201.399 C 82.055 200.969,82.215 200.429,82.406 200.199 C 82.650 199.905,82.765 198.551,82.791 195.664 C 82.812 193.400,82.959 190.697,83.118 189.659 C 83.278 188.620,83.350 187.676,83.279 187.561 C 83.096 187.265,84.539 178.796,84.835 178.426 C 84.970 178.257,85.008 177.929,84.919 177.697 C 84.821 177.442,84.959 177.166,85.266 177.002 C 85.562 176.843,85.925 176.148,86.130 175.345 C 86.325 174.584,86.596 173.893,86.733 173.809 C 86.869 173.724,86.980 173.049,86.980 172.308 C 86.980 171.567,87.103 170.961,87.253 170.961 C 87.403 170.961,87.526 170.562,87.526 170.073 C 87.526 169.585,87.653 168.757,87.810 168.233 C 87.966 167.709,88.147 166.973,88.213 166.599 C 88.533 164.776,88.936 163.144,89.173 162.717 C 89.316 162.456,89.434 161.710,89.434 161.058 C 89.434 160.406,89.507 159.800,89.595 159.712 C 89.683 159.624,89.805 158.857,89.865 158.009 C 89.925 157.160,90.216 155.918,90.512 155.249 C 90.808 154.580,91.134 153.578,91.238 153.022 C 91.341 152.466,91.579 151.766,91.767 151.466 C 91.955 151.166,92.192 150.399,92.295 149.763 C 92.397 149.126,92.579 148.545,92.698 148.471 C 92.817 148.398,92.998 147.557,93.100 146.604 C 93.202 145.650,93.450 144.554,93.650 144.168 C 93.850 143.782,94.101 142.935,94.208 142.285 C 94.431 140.931,95.255 138.386,96.043 136.622 C 96.411 135.800,96.606 134.694,96.652 133.173 C 96.702 131.519,96.855 130.731,97.235 130.156 C 97.519 129.728,97.885 129.132,98.050 128.833 C 98.221 128.522,98.804 128.191,99.413 128.060 C 99.998 127.935,100.845 127.667,101.295 127.466 C 101.745 127.264,102.420 127.014,102.795 126.909 C 103.750 126.641,105.011 125.738,107.086 123.835 L 108.077 122.925 109.143 123.494 C 110.311 124.118,111.119 124.219,111.392 123.777 C 111.602 123.437,112.338 123.954,112.338 124.442 C 112.338 124.614,112.645 125.206,113.020 125.757 C 113.395 126.309,113.701 127.057,113.701 127.419 C 113.701 127.780,114.008 128.529,114.383 129.081 C 114.883 129.818,115.065 130.445,115.065 131.437 C 115.065 132.180,115.187 132.788,115.337 132.788 C 115.879 132.788,115.374 139.938,114.751 141.072 C 114.428 141.662,114.406 157.751,114.728 158.246 C 114.902 158.514,115.295 163.032,115.705 169.461 C 115.772 170.511,116.024 172.843,116.265 174.642 C 117.114 180.987,117.494 185.034,117.506 187.880 C 117.514 189.679,117.637 190.875,117.834 191.072 C 118.054 191.292,118.064 191.495,117.869 191.740 C 117.431 192.289,117.285 193.929,117.608 194.683 C 118.286 196.265,118.324 208.346,117.661 211.216 C 117.411 212.296,116.599 212.679,114.558 212.679 C 112.021 212.679,108.793 214.463,108.793 215.866 C 108.793 216.217,108.646 216.740,108.466 217.028 C 107.809 218.080,109.862 220.564,111.401 220.578 C 111.860 220.583,112.719 220.817,113.309 221.100 C 115.198 222.004,121.282 222.478,122.826 221.841 C 123.453 221.583,123.850 221.580,124.598 221.830 C 125.857 222.250,128.882 222.090,132.788 221.395 C 136.244 220.780,136.066 220.794,137.461 221.022 C 138.167 221.137,138.666 221.044,139.193 220.699 C 139.640 220.406,140.479 220.206,141.315 220.194 C 142.158 220.182,142.740 220.042,142.809 219.835 C 142.882 219.615,143.512 219.492,144.603 219.486 C 145.544 219.481,146.585 219.304,146.967 219.087 C 147.342 218.872,148.268 218.693,149.025 218.687 C 149.783 218.682,150.527 218.553,150.680 218.400 C 150.832 218.247,151.746 217.986,152.711 217.819 C 157.083 217.061,159.395 214.946,158.669 212.369 C 157.957 209.841,156.083 209.084,151.152 209.330 C 149.757 209.400,148.862 209.333,148.750 209.152 C 148.651 208.992,147.721 208.862,146.678 208.862 L 144.785 208.862 144.785 207.514 C 144.785 206.773,144.891 206.102,145.020 206.022 C 145.348 205.820,145.187 200.721,144.822 199.727 C 144.459 198.741,143.645 191.756,143.583 189.093 C 143.558 188.043,143.434 187.016,143.308 186.812 C 143.181 186.607,143.042 183.678,142.999 180.304 C 142.949 176.378,142.814 174.061,142.626 173.873 C 142.222 173.469,142.253 170.603,142.665 170.191 C 142.929 169.927,142.929 169.744,142.665 169.322 C 142.482 169.028,142.331 168.425,142.331 167.983 C 142.331 167.541,142.198 166.834,142.035 166.412 C 141.873 165.990,141.692 164.294,141.634 162.645 C 141.509 159.103,141.108 155.173,140.716 153.647 C 140.562 153.047,140.433 151.875,140.429 151.043 C 140.426 150.211,140.292 149.399,140.132 149.239 C 139.800 148.907,140.271 144.759,140.741 143.881 C 140.898 143.588,140.939 142.815,140.836 142.098 C 140.381 138.940,140.382 134.315,140.839 132.863 C 141.133 131.930,141.227 131.059,141.109 130.364 C 140.883 129.025,141.734 127.008,142.814 126.322 C 143.223 126.062,143.750 125.639,143.983 125.383 C 144.217 125.127,144.727 124.837,145.115 124.740 C 145.504 124.642,146.049 124.358,146.326 124.108 C 146.603 123.858,147.198 123.486,147.648 123.281 C 151.560 121.500,152.892 119.310,151.567 116.838 C 150.857 115.513,150.324 115.085,149.369 115.073 C 148.965 115.069,148.559 114.942,148.466 114.792 C 148.251 114.445,147.784 114.457,147.147 114.828 M274.524 123.113 C 274.384 123.253,272.971 123.430,270.348 123.638 C 267.125 123.893,265.428 124.151,265.261 124.413 C 265.163 124.567,264.672 124.662,264.170 124.624 C 262.121 124.471,258.616 124.819,257.496 125.287 C 256.957 125.513,256.526 125.562,256.432 125.410 C 256.344 125.269,255.476 125.153,254.501 125.153 C 253.156 125.153,252.778 125.235,252.933 125.494 C 253.071 125.724,252.987 125.713,252.675 125.459 C 252.311 125.164,251.963 125.145,251.055 125.369 C 250.418 125.526,249.182 125.809,248.306 125.998 C 246.601 126.367,245.399 127.459,245.399 128.640 C 245.399 129.470,244.941 129.624,244.201 129.043 C 243.846 128.763,243.019 128.378,242.364 128.188 C 241.708 127.999,240.796 127.729,240.335 127.589 C 239.875 127.449,238.457 127.335,237.186 127.335 C 235.883 127.335,234.744 127.205,234.577 127.038 C 234.414 126.875,232.825 126.631,231.046 126.496 C 229.267 126.360,226.769 126.123,225.494 125.969 C 224.219 125.815,222.089 125.628,220.759 125.554 C 219.430 125.480,218.231 125.351,218.096 125.268 C 217.344 124.803,210.875 124.947,209.760 125.453 C 207.561 126.452,207.656 131.152,209.875 131.152 C 210.031 131.152,210.317 131.343,210.511 131.577 C 210.988 132.152,212.600 132.801,213.087 132.614 C 213.304 132.531,214.252 132.838,215.194 133.297 C 216.135 133.755,217.009 134.123,217.135 134.114 C 217.506 134.088,218.950 135.582,218.950 135.991 C 218.950 136.196,219.490 136.856,220.150 137.457 C 220.941 138.177,221.409 138.861,221.522 139.465 C 221.625 140.017,222.054 140.698,222.601 141.177 C 223.862 142.285,224.094 144.344,223.148 146.037 C 222.341 147.484,222.078 151.429,222.553 154.960 C 222.809 156.858,222.806 157.477,222.538 157.906 C 221.279 159.922,223.556 164.963,225.725 164.963 C 226.789 164.963,228.637 163.507,228.289 162.943 C 227.978 162.441,228.220 157.397,228.598 156.479 C 228.807 155.971,229.068 154.648,229.177 153.538 C 229.327 152.013,229.565 151.220,230.155 150.290 C 230.667 149.483,230.883 148.851,230.783 148.452 C 230.699 148.118,230.763 147.762,230.925 147.662 C 231.088 147.562,231.220 147.111,231.220 146.660 C 231.220 145.683,231.598 144.914,232.480 144.097 C 232.837 143.766,233.129 143.417,233.129 143.320 C 233.129 143.223,233.566 142.522,234.100 141.762 C 234.635 141.001,235.387 139.653,235.772 138.765 C 236.157 137.877,236.615 137.151,236.789 137.151 C 236.964 137.151,237.575 136.537,238.146 135.787 L 239.186 134.424 240.868 134.424 C 241.940 134.424,242.768 134.272,243.149 134.005 C 243.720 133.605,243.765 133.628,244.134 134.511 C 244.656 135.762,248.075 139.059,248.849 139.059 C 249.031 139.059,249.249 139.274,249.334 139.536 C 249.419 139.799,250.099 140.676,250.846 141.485 C 251.593 142.295,252.276 143.184,252.364 143.462 C 252.453 143.740,252.683 143.967,252.876 143.967 C 253.070 143.967,253.793 145.251,254.485 146.821 C 255.176 148.391,255.961 149.897,256.228 150.168 C 257.030 150.981,259.032 155.706,259.032 156.786 C 259.032 157.081,259.277 157.477,259.577 157.664 C 259.942 157.891,260.123 158.300,260.123 158.893 C 260.123 159.382,260.231 159.782,260.362 159.782 C 260.682 159.782,261.213 161.101,261.359 162.258 C 261.424 162.771,261.663 163.326,261.891 163.493 C 262.118 163.659,262.304 164.101,262.304 164.474 C 262.304 164.847,262.551 165.437,262.853 165.785 C 263.164 166.143,263.337 166.624,263.251 166.894 C 263.168 167.156,263.217 167.443,263.361 167.532 C 263.671 167.724,264.784 171.024,264.931 172.188 C 264.988 172.638,265.148 173.374,265.287 173.824 C 265.425 174.274,265.622 175.440,265.724 176.414 C 265.826 177.389,265.949 178.555,265.998 179.005 C 266.047 179.455,266.114 180.130,266.146 180.504 C 266.247 181.684,265.821 189.289,265.583 190.564 C 265.458 191.235,265.446 192.038,265.557 192.347 C 265.668 192.657,265.669 193.217,265.558 193.592 C 265.448 193.967,265.345 194.793,265.331 195.427 C 265.305 196.509,264.939 197.745,264.047 199.769 C 263.838 200.241,263.667 200.818,263.667 201.051 C 263.667 201.683,263.107 202.842,262.088 204.318 C 261.587 205.043,261.093 206.124,260.991 206.722 C 260.827 207.674,260.637 207.898,259.447 208.539 C 257.118 209.794,255.243 213.386,256.091 214.969 C 256.970 216.612,258.392 217.630,259.898 217.694 C 260.709 217.729,261.512 217.843,261.681 217.948 C 262.287 218.322,264.919 218.746,266.329 218.697 C 267.210 218.665,267.902 218.784,268.121 219.003 C 268.503 219.384,271.834 219.435,273.347 219.083 C 274.192 218.886,276.580 218.637,277.301 218.670 C 277.526 218.680,278.814 218.736,280.164 218.793 C 281.513 218.851,283.231 219.008,283.981 219.144 C 284.731 219.279,286.203 219.348,287.253 219.298 C 288.303 219.248,290.082 219.176,291.207 219.138 C 295.017 219.011,296.870 216.437,295.283 213.473 C 295.028 212.996,294.644 210.129,294.720 209.271 C 294.734 209.121,294.812 208.200,294.895 207.226 C 294.977 206.251,295.118 205.269,295.208 205.044 C 295.298 204.819,295.408 202.892,295.454 200.762 C 295.499 198.632,295.671 196.638,295.836 196.330 C 296.123 195.793,296.161 194.539,295.996 191.002 C 295.925 189.479,296.349 186.719,296.967 184.675 C 297.303 183.565,297.478 180.378,297.645 172.324 C 297.821 163.855,298.073 162.348,299.520 161.148 C 299.746 160.960,299.932 160.585,299.932 160.315 C 299.932 160.045,300.300 159.456,300.750 159.006 C 301.200 158.556,301.568 158.076,301.568 157.939 C 301.568 157.803,302.049 157.004,302.637 156.165 C 303.585 154.811,304.066 153.907,304.847 152.011 C 304.971 151.711,305.073 151.073,305.074 150.594 C 305.074 150.114,305.303 149.378,305.582 148.958 C 306.370 147.770,306.714 147.180,307.221 146.149 C 307.479 145.624,308.031 144.791,308.446 144.299 C 308.862 143.806,309.202 143.283,309.202 143.137 C 309.202 142.650,310.867 140.563,311.539 140.209 C 311.903 140.017,312.202 139.753,312.202 139.623 C 312.202 139.015,317.982 136.410,320.709 135.788 C 321.504 135.607,323.074 135.214,324.199 134.915 C 328.249 133.839,328.715 134.230,327.717 137.866 C 327.322 139.305,327.246 140.003,327.444 140.372 C 327.670 140.795,327.689 142.468,327.468 142.468 C 327.432 142.468,327.374 144.213,327.340 146.346 C 327.299 148.807,327.160 150.365,326.959 150.608 C 326.738 150.874,326.722 151.202,326.906 151.687 C 327.063 152.100,327.076 152.715,326.937 153.199 C 326.808 153.648,326.747 154.059,326.802 154.114 C 327.197 154.509,326.747 159.716,326.222 160.817 C 325.957 161.372,325.702 162.318,325.656 162.918 C 325.609 163.517,325.524 164.622,325.466 165.372 C 325.408 166.121,325.093 167.627,324.767 168.717 C 324.440 169.807,324.242 170.810,324.327 170.947 C 324.411 171.084,324.356 171.273,324.203 171.367 C 324.051 171.462,323.926 172.311,323.926 173.254 C 323.926 174.198,323.795 175.347,323.634 175.809 C 323.419 176.425,323.427 176.808,323.662 177.248 C 323.862 177.622,323.884 177.911,323.720 178.017 C 323.328 178.270,322.763 182.516,322.830 184.700 C 322.848 185.283,322.683 186.142,322.465 186.609 C 322.246 187.076,322.010 188.324,321.940 189.384 C 321.870 190.443,321.687 191.547,321.533 191.838 C 321.228 192.413,320.686 195.216,320.519 197.084 C 320.461 197.729,320.276 198.676,320.107 199.188 C 319.938 199.700,319.753 200.746,319.696 201.514 C 319.639 202.281,319.480 203.052,319.343 203.227 C 319.071 203.573,318.734 204.764,318.585 205.904 C 318.475 206.738,317.683 208.875,317.341 209.257 C 317.214 209.399,317.110 209.779,317.110 210.101 C 317.110 210.423,316.875 210.898,316.589 211.157 C 315.937 211.747,314.828 215.746,315.086 216.573 C 315.324 217.331,316.541 219.121,317.566 220.218 C 318.498 221.216,321.014 222.068,321.794 221.651 C 322.362 221.347,324.364 221.521,324.840 221.916 C 325.014 222.060,325.708 222.153,326.382 222.121 C 327.056 222.090,327.878 222.233,328.209 222.440 C 328.788 222.800,331.704 222.947,334.905 222.776 C 335.619 222.738,336.365 222.841,336.562 223.004 C 337.287 223.606,385.745 223.420,386.069 222.814 C 386.218 222.536,386.708 221.914,387.159 221.432 C 388.522 219.973,389.329 217.707,389.779 214.081 C 389.842 213.578,390.004 213.026,390.140 212.854 C 390.369 212.567,390.555 211.387,390.851 208.366 C 390.914 207.719,391.121 207.002,391.310 206.774 C 392.070 205.859,391.932 198.224,391.130 196.789 C 390.013 194.791,387.120 193.731,385.186 194.611 C 383.400 195.423,382.604 195.674,381.868 195.657 C 381.332 195.644,380.878 195.849,380.553 196.251 C 380.279 196.588,379.905 196.864,379.720 196.864 C 379.535 196.864,378.973 197.167,378.472 197.537 C 377.608 198.174,376.890 198.237,377.257 197.643 C 377.350 197.493,377.168 197.530,376.853 197.727 C 376.337 198.049,376.327 198.101,376.750 198.250 C 377.398 198.477,374.259 199.487,371.643 199.894 C 369.970 200.153,369.424 200.370,368.643 201.082 C 368.119 201.561,367.198 202.088,366.599 202.254 C 362.463 203.398,360.552 203.571,360.314 202.822 C 360.225 202.540,360.032 202.384,359.885 202.474 C 359.718 202.578,359.735 202.779,359.932 203.016 C 360.196 203.334,359.885 203.375,357.969 203.277 C 356.716 203.213,354.097 203.340,352.147 203.558 C 344.959 204.364,338.354 204.163,337.491 203.111 C 336.838 202.315,336.888 201.835,337.801 200.117 C 338.234 199.303,338.738 197.962,338.920 197.137 C 339.102 196.312,339.488 194.901,339.778 194.001 C 341.217 189.544,342.229 186.702,342.574 186.155 C 342.784 185.821,343.035 184.690,343.130 183.640 C 343.344 181.302,343.755 179.273,344.235 178.187 C 344.433 177.737,344.900 176.264,345.271 174.915 C 345.642 173.565,346.053 172.481,346.184 172.506 C 346.315 172.532,346.444 172.015,346.469 171.359 C 346.522 169.998,348.162 164.417,348.510 164.417 C 348.636 164.417,348.740 164.202,348.741 163.940 C 348.742 163.678,348.926 163.111,349.150 162.682 C 349.374 162.252,349.557 161.723,349.557 161.505 C 349.557 160.977,350.702 158.307,350.978 158.191 C 351.098 158.140,351.128 157.989,351.045 157.855 C 350.962 157.721,351.514 156.330,352.271 154.764 C 353.028 153.199,353.647 151.781,353.647 151.615 C 353.647 151.078,355.009 148.603,355.305 148.603 C 355.941 148.603,355.442 146.833,354.779 146.740 L 354.139 146.649 354.759 145.990 C 355.099 145.627,355.277 145.331,355.154 145.331 C 355.031 145.331,355.262 145.024,355.666 144.649 C 356.137 144.212,356.260 143.967,356.008 143.967 C 355.488 143.967,355.215 143.222,355.635 142.952 C 355.976 142.734,356.225 142.273,357.163 140.126 C 357.464 139.439,357.893 138.724,358.117 138.538 C 358.342 138.352,358.912 137.596,359.386 136.858 C 359.859 136.120,360.360 135.587,360.498 135.672 C 360.636 135.758,360.727 135.727,360.700 135.603 C 360.672 135.479,360.746 135.158,360.863 134.889 C 361.230 134.048,360.805 132.421,360.063 131.823 C 359.684 131.518,359.373 131.119,359.373 130.937 C 359.373 130.755,359.064 130.607,358.688 130.607 C 358.311 130.607,357.789 130.491,357.529 130.349 C 356.963 130.041,355.041 129.654,354.465 129.732 C 353.018 129.927,349.812 129.981,349.707 129.811 C 349.637 129.698,348.829 129.579,347.911 129.546 C 346.992 129.513,345.963 129.380,345.623 129.251 C 345.283 129.122,344.131 129.061,343.062 129.116 C 341.994 129.171,341.048 129.100,340.960 128.957 C 340.871 128.815,340.347 128.697,339.793 128.696 C 339.240 128.695,337.989 128.450,337.014 128.153 C 336.040 127.855,334.917 127.611,334.520 127.609 C 334.123 127.608,333.098 127.239,332.243 126.789 C 330.359 125.799,329.860 125.782,328.330 126.656 C 327.678 127.029,327.034 127.266,326.900 127.182 C 326.102 126.689,319.653 126.193,318.442 126.531 C 318.051 126.640,317.192 126.610,316.534 126.463 C 315.876 126.316,314.540 126.095,313.565 125.970 C 310.267 125.549,309.202 125.356,309.202 125.178 C 309.202 125.081,308.313 124.997,307.226 124.992 C 306.138 124.986,304.697 124.892,304.022 124.783 C 299.587 124.063,297.974 124.556,296.023 127.230 L 294.807 128.897 295.331 130.516 C 295.978 132.515,297.261 134.151,298.179 134.151 C 298.543 134.151,299.087 134.397,299.387 134.697 C 299.686 134.997,300.041 135.242,300.175 135.242 C 300.595 135.242,300.731 135.994,300.474 136.889 C 300.338 137.363,300.258 138.658,300.295 139.768 C 300.349 141.357,300.281 141.786,299.978 141.786 C 299.703 141.786,299.672 141.884,299.870 142.127 C 300.245 142.589,300.097 144.515,299.665 144.782 C 299.473 144.900,299.400 145.132,299.503 145.298 C 299.605 145.463,299.381 145.906,299.005 146.283 C 298.628 146.659,298.391 146.967,298.478 146.967 C 298.564 146.967,298.499 147.131,298.332 147.333 C 298.165 147.534,298.109 147.779,298.207 147.878 C 298.306 147.977,298.247 148.057,298.076 148.057 C 297.700 148.057,296.883 149.553,297.126 149.796 C 297.221 149.891,297.038 150.245,296.719 150.584 C 296.401 150.923,295.949 151.659,295.715 152.219 C 295.481 152.779,295.176 153.238,295.039 153.238 C 294.901 153.238,294.709 153.485,294.613 153.788 C 294.445 154.320,292.880 155.961,292.539 155.963 C 292.447 155.964,292.165 155.423,291.912 154.762 C 291.659 154.100,291.274 153.490,291.057 153.407 C 290.839 153.323,290.661 152.972,290.661 152.625 C 290.661 152.279,290.416 151.786,290.116 151.529 C 289.625 151.108,289.428 150.530,289.550 149.864 C 289.574 149.732,289.418 149.426,289.205 149.182 C 288.991 148.938,288.540 148.187,288.204 147.512 C 287.867 146.837,287.427 146.189,287.226 146.072 C 287.026 145.955,286.623 145.320,286.332 144.661 C 286.040 144.002,285.284 142.901,284.652 142.215 C 284.020 141.529,283.598 140.968,283.716 140.968 C 284.090 140.968,282.913 139.824,282.296 139.588 C 281.970 139.463,281.481 138.894,281.211 138.324 C 280.941 137.753,280.227 136.792,279.624 136.187 C 279.021 135.583,278.310 134.754,278.044 134.347 C 277.778 133.939,277.318 133.606,277.022 133.606 C 276.214 133.606,276.372 132.884,277.301 132.336 C 277.751 132.070,278.119 131.758,278.119 131.642 C 278.119 131.527,278.522 131.263,279.016 131.057 C 281.507 130.016,281.214 125.689,278.571 124.470 C 278.097 124.252,277.282 123.825,276.760 123.522 C 275.854 122.998,274.827 122.810,274.524 123.113 M180.485 123.355 C 180.407 123.434,178.017 123.568,175.175 123.653 C 172.332 123.739,169.639 123.866,169.189 123.936 C 168.739 124.006,166.738 124.082,164.742 124.106 L 161.112 124.149 159.970 125.053 C 158.326 126.353,157.933 128.249,159.042 129.534 C 160.170 130.842,162.145 132.243,162.861 132.243 C 163.249 132.243,163.643 132.365,163.736 132.515 C 163.828 132.665,164.120 132.788,164.383 132.788 C 164.725 132.788,164.998 133.216,165.333 134.280 C 165.592 135.100,165.982 135.950,166.201 136.169 C 166.420 136.387,166.599 136.857,166.599 137.213 C 166.599 137.569,166.708 137.976,166.843 138.119 C 166.977 138.261,167.366 139.052,167.706 139.877 C 168.046 140.702,168.536 141.622,168.793 141.922 C 169.051 142.222,169.343 142.734,169.442 143.059 C 169.540 143.384,170.106 144.182,170.700 144.831 C 171.761 145.992,172.012 146.951,171.831 149.148 C 171.813 149.373,171.721 150.416,171.628 151.466 C 171.535 152.515,171.484 154.294,171.516 155.419 C 171.547 156.544,171.565 157.710,171.555 158.010 C 171.370 163.375,171.254 167.968,171.291 168.507 C 171.418 170.389,171.109 179.778,170.909 180.098 C 170.649 180.514,171.125 184.271,171.494 184.716 C 171.724 184.993,171.736 185.257,171.535 185.632 C 171.345 185.987,171.337 186.863,171.511 188.308 C 171.653 189.490,171.835 191.438,171.916 192.638 C 171.996 193.838,172.165 195.472,172.292 196.271 C 172.418 197.069,172.470 198.173,172.406 198.725 C 172.208 200.439,172.181 202.671,172.343 204.017 C 172.428 204.726,172.410 205.401,172.303 205.516 C 171.853 205.999,171.911 207.947,172.390 208.452 C 172.654 208.730,172.870 209.189,172.870 209.473 C 172.870 211.702,175.711 212.725,180.283 212.143 C 183.670 211.712,184.478 211.012,184.381 208.589 C 184.360 208.064,184.339 207.219,184.335 206.712 C 184.331 206.204,184.189 205.622,184.021 205.419 C 183.839 205.200,183.787 204.667,183.892 204.105 C 183.989 203.586,183.948 202.940,183.800 202.671 C 183.653 202.402,183.457 201.601,183.366 200.893 C 183.274 200.184,183.084 199.532,182.943 199.445 C 182.801 199.358,182.682 199.017,182.677 198.689 C 182.664 197.850,181.743 195.994,181.465 196.246 C 181.338 196.361,181.328 196.294,181.442 196.097 C 181.561 195.890,181.456 195.527,181.192 195.235 C 180.665 194.653,180.484 193.015,180.771 191.442 C 180.898 190.749,180.861 190.240,180.670 190.049 C 180.482 189.860,180.367 188.444,180.364 186.284 C 180.361 183.076,180.159 181.713,179.726 181.979 C 179.629 182.039,179.540 181.084,179.528 179.859 C 179.514 178.422,179.333 177.175,179.018 176.352 C 178.750 175.649,178.586 174.695,178.654 174.233 C 178.722 173.770,178.675 173.328,178.550 173.251 C 178.425 173.173,178.323 172.868,178.323 172.571 C 178.323 172.275,178.122 171.726,177.877 171.351 C 177.552 170.856,177.422 169.984,177.400 168.157 C 177.383 166.775,177.277 165.576,177.164 165.492 C 177.051 165.408,176.904 163.935,176.836 162.220 C 176.768 160.504,176.676 158.868,176.631 158.584 C 176.587 158.300,176.704 158.014,176.892 157.948 C 177.079 157.882,177.232 158.012,177.232 158.236 C 177.232 158.461,177.799 159.144,178.492 159.754 C 179.563 160.696,179.729 160.976,179.601 161.617 C 179.400 162.629,180.150 165.260,180.800 165.824 C 181.087 166.073,181.322 166.449,181.322 166.658 C 181.322 166.868,181.503 167.278,181.723 167.569 C 181.943 167.860,182.127 168.357,182.132 168.673 C 182.137 168.990,182.449 169.480,182.825 169.763 C 183.202 170.046,183.448 170.440,183.372 170.639 C 183.219 171.036,183.731 173.389,184.064 173.824 C 184.179 173.974,184.361 174.588,184.469 175.187 C 184.577 175.787,184.758 176.401,184.871 176.551 C 184.984 176.701,185.159 177.208,185.259 177.678 C 185.360 178.147,185.865 179.026,186.381 179.630 C 186.898 180.233,187.321 180.969,187.321 181.264 C 187.321 181.559,187.505 181.954,187.730 182.140 C 187.955 182.327,188.139 182.593,188.139 182.731 C 188.139 182.868,188.383 183.243,188.681 183.563 C 188.979 183.883,189.302 184.583,189.399 185.119 C 189.496 185.655,189.927 186.578,190.357 187.170 C 190.787 187.762,191.138 188.522,191.138 188.858 C 191.138 189.195,191.247 189.538,191.381 189.620 C 191.514 189.702,191.707 190.103,191.809 190.510 C 191.911 190.917,192.215 191.405,192.485 191.594 C 192.754 191.782,193.045 192.288,193.131 192.718 C 193.222 193.172,193.920 194.117,194.799 194.977 C 195.631 195.790,196.313 196.590,196.315 196.754 C 196.324 197.406,197.277 198.914,198.350 199.974 C 198.973 200.588,199.564 201.305,199.664 201.568 C 199.765 201.830,200.026 202.045,200.244 202.045 C 200.726 202.045,201.687 203.221,202.192 204.431 C 202.423 204.983,202.755 205.317,203.073 205.317 C 203.358 205.317,204.252 206.073,205.090 207.021 C 205.918 207.958,206.945 208.909,207.373 209.134 C 207.800 209.359,208.608 209.990,209.168 210.536 C 209.729 211.082,210.533 211.704,210.956 211.918 C 211.379 212.131,211.970 212.437,212.270 212.597 C 213.070 213.024,214.086 213.437,214.860 213.651 C 215.235 213.754,216.026 214.191,216.618 214.622 C 217.299 215.118,218.033 215.406,218.615 215.406 C 219.121 215.406,220.047 215.700,220.674 216.059 C 221.301 216.418,222.120 216.802,222.495 216.913 C 222.870 217.023,223.502 217.342,223.900 217.623 C 224.298 217.903,224.789 218.133,224.991 218.134 C 225.193 218.135,225.700 218.314,226.119 218.533 C 229.370 220.229,232.055 217.328,230.402 213.906 C 230.112 213.306,229.871 212.650,229.866 212.448 C 229.861 212.247,229.620 211.748,229.330 211.341 C 229.040 210.934,228.719 210.270,228.618 209.865 C 228.516 209.460,228.324 209.062,228.191 208.979 C 228.057 208.897,227.948 208.524,227.948 208.151 C 227.948 207.777,227.642 207.188,227.267 206.841 C 226.892 206.493,226.585 205.986,226.585 205.713 C 226.585 205.441,226.351 204.289,226.065 203.154 C 225.364 200.377,224.813 195.314,225.164 194.880 C 225.517 194.442,225.716 192.997,225.907 189.502 C 226.103 185.909,226.221 184.971,226.711 183.089 C 227.606 179.653,227.788 173.788,227.012 173.355 C 226.761 173.214,226.433 172.832,226.285 172.507 C 225.724 171.274,225.253 170.611,224.298 169.710 C 223.756 169.199,223.313 168.538,223.313 168.240 C 223.313 167.943,222.883 167.028,222.359 166.208 C 221.834 165.387,221.404 164.475,221.404 164.180 C 221.404 163.886,221.305 163.604,221.184 163.554 C 220.865 163.422,219.109 160.697,218.290 159.061 C 217.904 158.290,217.403 157.588,217.178 157.502 C 216.953 157.416,216.769 157.178,216.769 156.975 C 216.769 156.771,216.462 156.317,216.087 155.965 C 215.712 155.612,215.406 155.107,215.406 154.842 C 215.406 154.577,215.145 154.177,214.827 153.954 C 214.265 153.560,213.800 152.895,213.257 151.707 C 213.112 151.390,212.800 151.057,212.563 150.966 C 212.327 150.875,212.134 150.647,212.134 150.459 C 212.134 150.271,211.417 149.435,210.541 148.601 C 209.665 147.768,208.598 146.537,208.170 145.867 C 207.742 145.197,207.175 144.400,206.909 144.096 C 206.644 143.792,206.146 143.041,205.803 142.428 C 204.499 140.093,203.107 138.314,201.915 137.457 C 201.102 136.873,200.483 136.133,200.105 135.292 C 199.790 134.590,199.314 133.770,199.047 133.470 C 198.781 133.170,198.479 132.648,198.377 132.311 C 198.275 131.973,197.954 131.570,197.664 131.415 C 197.374 131.260,197.137 130.942,197.137 130.708 C 197.137 130.294,196.682 129.617,195.155 127.760 C 194.740 127.255,194.276 126.493,194.124 126.066 C 193.322 123.814,189.870 123.001,183.231 123.500 C 182.406 123.562,181.483 123.523,181.179 123.413 C 180.875 123.303,180.563 123.277,180.485 123.355 M281.007 131.561 C 280.761 131.936,280.671 132.243,280.808 132.243 C 280.944 132.243,281.256 131.936,281.502 131.561 C 281.748 131.186,281.837 130.879,281.701 130.879 C 281.565 130.879,281.252 131.186,281.007 131.561 M293.340 133.620 C 293.670 133.927,294.069 134.100,294.226 134.003 C 294.562 133.795,293.728 133.083,293.132 133.069 C 292.862 133.063,292.926 133.234,293.340 133.620 M367.825 135.763 C 367.825 135.936,368.010 136.148,368.234 136.234 C 368.459 136.320,368.643 136.549,368.643 136.742 C 368.643 136.935,368.821 137.161,369.039 137.244 C 369.343 137.361,369.384 137.262,369.218 136.813 C 368.966 136.131,367.825 135.271,367.825 135.763 M325.180 137.897 C 324.887 138.189,325.008 138.514,325.410 138.514 C 325.626 138.514,325.871 138.404,325.954 138.270 C 326.127 137.989,325.426 137.651,325.180 137.897 M323.227 143.451 C 322.928 143.935,323.793 144.614,324.328 144.315 C 324.736 144.086,324.711 144.008,324.098 143.607 C 323.629 143.299,323.351 143.250,323.227 143.451 M293.661 146.119 C 293.661 146.403,293.825 146.699,294.027 146.776 C 294.289 146.877,294.358 146.730,294.268 146.260 C 294.119 145.483,293.661 145.377,293.661 146.119 M315.910 151.534 C 316.084 152.280,316.703 152.965,317.204 152.965 C 317.349 152.965,317.278 152.751,317.048 152.488 C 316.817 152.226,316.545 151.735,316.442 151.397 C 316.173 150.516,315.702 150.637,315.910 151.534 M351.738 174.610 C 351.738 174.835,351.861 175.095,352.011 175.187 C 352.161 175.280,352.284 175.172,352.284 174.947 C 352.284 174.722,352.161 174.462,352.011 174.369 C 351.861 174.277,351.738 174.385,351.738 174.610 M347.921 190.613 C 347.921 190.773,347.737 191.089,347.512 191.314 C 346.919 191.906,347.010 192.292,347.648 191.893 C 348.116 191.601,348.449 190.320,348.057 190.320 C 347.982 190.320,347.921 190.452,347.921 190.613 "
          stroke="none" fill-rule="evenodd"></path>
</svg>